<?xml version="1.0" encoding="utf-8" standalone="no"?>
<!DOCTYPE svg PUBLIC "-//W3C//DTD SVG 1.1//EN"
  "http://www.w3.org/Graphics/SVG/1.1/DTD/svg11.dtd">
<svg xmlns:xlink="http://www.w3.org/1999/xlink" width="404.500625pt" height="270.692986pt" viewBox="0 0 404.500625 270.692986" xmlns="http://www.w3.org/2000/svg" version="1.1">
 <metadata>
  <rdf:RDF xmlns:dc="http://purl.org/dc/elements/1.1/" xmlns:cc="http://creativecommons.org/ns#" xmlns:rdf="http://www.w3.org/1999/02/22-rdf-syntax-ns#">
   <cc:Work>
    <dc:type rdf:resource="http://purl.org/dc/dcmitype/StillImage"/>
    <dc:date>2026-07-30T19:01:34.759554</dc:date>
    <dc:format>image/svg+xml</dc:format>
    <dc:creator>
     <cc:Agent>
      <dc:title>Matplotlib v3.11.1, https://matplotlib.org/</dc:title>
     </cc:Agent>
    </dc:creator>
   </cc:Work>
  </rdf:RDF>
 </metadata>
 <defs>
  <style type="text/css">*{stroke-linejoin: round; stroke-linecap: butt}</style>
 </defs>
 <g id="figure_1">
  <g id="patch_1">
   <path d="M 0 270.692986 
L 404.500625 270.692986 
L 404.500625 0 
L 0 0 
z
" style="fill: #ffffff"/>
  </g>
  <g id="axes_1">
   <g id="patch_2">
    <path d="M 45.760625 221.142281 
L 397.300625 221.142281 
L 397.300625 21.558281 
L 45.760625 21.558281 
z
" style="fill: #ffffff"/>
   </g>
   <g id="patch_3">
    <path d="M 134.334019 221.142281 
L 151.856782 221.142281 
L 151.856782 21.558281 
L 134.334019 21.558281 
z
" clip-path="url(#p0ac21348ed)" style="fill: #8f3a33; opacity: 0.08; stroke: #8f3a33; stroke-linejoin: miter"/>
   </g>
   <g id="matplotlib.axis_1">
    <g id="xtick_1">
     <g id="line2d_1">
      <path d="M 46.720205 221.142281 
L 46.720205 21.558281 
" clip-path="url(#p0ac21348ed)" style="fill: none; stroke: #b0b0b0; stroke-opacity: 0.25; stroke-width: 0.5; stroke-linecap: square"/>
     </g>
     <g id="line2d_2">
      <defs>
       <path id="md3b08f6468" d="M 0 0 
L 0 3.5 
" style="stroke: #000000; stroke-width: 0.8"/>
      </defs>
      <g>
       <use xlink:href="#md3b08f6468" x="46.720205" y="221.142281" style="stroke: #000000; stroke-width: 0.8"/>
      </g>
     </g>
     <g id="text_1">
      <text style="font-size: 9px; font-family: 'DejaVu Sans', 'Bitstream Vera Sans', 'Computer Modern Sans Serif', 'Lucida Grande', 'Verdana', 'Geneva', 'Lucid', 'Arial', 'Helvetica', 'Avant Garde', sans-serif; text-anchor: middle" x="46.720205" y="234.980172" transform="rotate(-0 46.720205 234.980172)">2018</text>
     </g>
    </g>
    <g id="xtick_2">
     <g id="line2d_3">
      <path d="M 88.441069 221.142281 
L 88.441069 21.558281 
" clip-path="url(#p0ac21348ed)" style="fill: none; stroke: #b0b0b0; stroke-opacity: 0.25; stroke-width: 0.5; stroke-linecap: square"/>
     </g>
     <g id="line2d_4">
      <g>
       <use xlink:href="#md3b08f6468" x="88.441069" y="221.142281" style="stroke: #000000; stroke-width: 0.8"/>
      </g>
     </g>
     <g id="text_2">
      <text style="font-size: 9px; font-family: 'DejaVu Sans', 'Bitstream Vera Sans', 'Computer Modern Sans Serif', 'Lucida Grande', 'Verdana', 'Geneva', 'Lucid', 'Arial', 'Helvetica', 'Avant Garde', sans-serif; text-anchor: middle" x="88.441069" y="234.980172" transform="rotate(-0 88.441069 234.980172)">2019</text>
     </g>
    </g>
    <g id="xtick_3">
     <g id="line2d_5">
      <path d="M 130.99635 221.142281 
L 130.99635 21.558281 
" clip-path="url(#p0ac21348ed)" style="fill: none; stroke: #b0b0b0; stroke-opacity: 0.25; stroke-width: 0.5; stroke-linecap: square"/>
     </g>
     <g id="line2d_6">
      <g>
       <use xlink:href="#md3b08f6468" x="130.99635" y="221.142281" style="stroke: #000000; stroke-width: 0.8"/>
      </g>
     </g>
     <g id="text_3">
      <text style="font-size: 9px; font-family: 'DejaVu Sans', 'Bitstream Vera Sans', 'Computer Modern Sans Serif', 'Lucida Grande', 'Verdana', 'Geneva', 'Lucid', 'Arial', 'Helvetica', 'Avant Garde', sans-serif; text-anchor: middle" x="130.99635" y="234.980172" transform="rotate(-0 130.99635 234.980172)">2020</text>
     </g>
    </g>
    <g id="xtick_4">
     <g id="line2d_7">
      <path d="M 172.717214 221.142281 
L 172.717214 21.558281 
" clip-path="url(#p0ac21348ed)" style="fill: none; stroke: #b0b0b0; stroke-opacity: 0.25; stroke-width: 0.5; stroke-linecap: square"/>
     </g>
     <g id="line2d_8">
      <g>
       <use xlink:href="#md3b08f6468" x="172.717214" y="221.142281" style="stroke: #000000; stroke-width: 0.8"/>
      </g>
     </g>
     <g id="text_4">
      <text style="font-size: 9px; font-family: 'DejaVu Sans', 'Bitstream Vera Sans', 'Computer Modern Sans Serif', 'Lucida Grande', 'Verdana', 'Geneva', 'Lucid', 'Arial', 'Helvetica', 'Avant Garde', sans-serif; text-anchor: middle" x="172.717214" y="234.980172" transform="rotate(-0 172.717214 234.980172)">2021</text>
     </g>
    </g>
    <g id="xtick_5">
     <g id="line2d_9">
      <path d="M 215.272495 221.142281 
L 215.272495 21.558281 
" clip-path="url(#p0ac21348ed)" style="fill: none; stroke: #b0b0b0; stroke-opacity: 0.25; stroke-width: 0.5; stroke-linecap: square"/>
     </g>
     <g id="line2d_10">
      <g>
       <use xlink:href="#md3b08f6468" x="215.272495" y="221.142281" style="stroke: #000000; stroke-width: 0.8"/>
      </g>
     </g>
     <g id="text_5">
      <text style="font-size: 9px; font-family: 'DejaVu Sans', 'Bitstream Vera Sans', 'Computer Modern Sans Serif', 'Lucida Grande', 'Verdana', 'Geneva', 'Lucid', 'Arial', 'Helvetica', 'Avant Garde', sans-serif; text-anchor: middle" x="215.272495" y="234.980172" transform="rotate(-0 215.272495 234.980172)">2022</text>
     </g>
    </g>
    <g id="xtick_6">
     <g id="line2d_11">
      <path d="M 256.993359 221.142281 
L 256.993359 21.558281 
" clip-path="url(#p0ac21348ed)" style="fill: none; stroke: #b0b0b0; stroke-opacity: 0.25; stroke-width: 0.5; stroke-linecap: square"/>
     </g>
     <g id="line2d_12">
      <g>
       <use xlink:href="#md3b08f6468" x="256.993359" y="221.142281" style="stroke: #000000; stroke-width: 0.8"/>
      </g>
     </g>
     <g id="text_6">
      <text style="font-size: 9px; font-family: 'DejaVu Sans', 'Bitstream Vera Sans', 'Computer Modern Sans Serif', 'Lucida Grande', 'Verdana', 'Geneva', 'Lucid', 'Arial', 'Helvetica', 'Avant Garde', sans-serif; text-anchor: middle" x="256.993359" y="234.980172" transform="rotate(-0 256.993359 234.980172)">2023</text>
     </g>
    </g>
    <g id="xtick_7">
     <g id="line2d_13">
      <path d="M 298.714223 221.142281 
L 298.714223 21.558281 
" clip-path="url(#p0ac21348ed)" style="fill: none; stroke: #b0b0b0; stroke-opacity: 0.25; stroke-width: 0.5; stroke-linecap: square"/>
     </g>
     <g id="line2d_14">
      <g>
       <use xlink:href="#md3b08f6468" x="298.714223" y="221.142281" style="stroke: #000000; stroke-width: 0.8"/>
      </g>
     </g>
     <g id="text_7">
      <text style="font-size: 9px; font-family: 'DejaVu Sans', 'Bitstream Vera Sans', 'Computer Modern Sans Serif', 'Lucida Grande', 'Verdana', 'Geneva', 'Lucid', 'Arial', 'Helvetica', 'Avant Garde', sans-serif; text-anchor: middle" x="298.714223" y="234.980172" transform="rotate(-0 298.714223 234.980172)">2024</text>
     </g>
    </g>
    <g id="xtick_8">
     <g id="line2d_15">
      <path d="M 340.435087 221.142281 
L 340.435087 21.558281 
" clip-path="url(#p0ac21348ed)" style="fill: none; stroke: #b0b0b0; stroke-opacity: 0.25; stroke-width: 0.5; stroke-linecap: square"/>
     </g>
     <g id="line2d_16">
      <g>
       <use xlink:href="#md3b08f6468" x="340.435087" y="221.142281" style="stroke: #000000; stroke-width: 0.8"/>
      </g>
     </g>
     <g id="text_8">
      <text style="font-size: 9px; font-family: 'DejaVu Sans', 'Bitstream Vera Sans', 'Computer Modern Sans Serif', 'Lucida Grande', 'Verdana', 'Geneva', 'Lucid', 'Arial', 'Helvetica', 'Avant Garde', sans-serif; text-anchor: middle" x="340.435087" y="234.980172" transform="rotate(-0 340.435087 234.980172)">2025</text>
     </g>
    </g>
   </g>
   <g id="matplotlib.axis_2">
    <g id="ytick_1">
     <g id="line2d_17">
      <path d="M 45.760625 196.86477 
L 397.300625 196.86477 
" clip-path="url(#p0ac21348ed)" style="fill: none; stroke: #b0b0b0; stroke-opacity: 0.25; stroke-width: 0.5; stroke-linecap: square"/>
     </g>
     <g id="line2d_18">
      <defs>
       <path id="m96159797b7" d="M 0 0 
L -3.5 0 
" style="stroke: #000000; stroke-width: 0.8"/>
      </defs>
      <g>
       <use xlink:href="#m96159797b7" x="45.760625" y="196.86477" style="stroke: #000000; stroke-width: 0.8"/>
      </g>
     </g>
     <g id="text_9">
      <text style="font-size: 9px; font-family: 'DejaVu Sans', 'Bitstream Vera Sans', 'Computer Modern Sans Serif', 'Lucida Grande', 'Verdana', 'Geneva', 'Lucid', 'Arial', 'Helvetica', 'Avant Garde', sans-serif; text-anchor: end" x="38.760625" y="200.283715" transform="rotate(-0 38.760625 200.283715)">-0,2</text>
     </g>
    </g>
    <g id="ytick_2">
     <g id="line2d_19">
      <path d="M 45.760625 159.550631 
L 397.300625 159.550631 
" clip-path="url(#p0ac21348ed)" style="fill: none; stroke: #b0b0b0; stroke-opacity: 0.25; stroke-width: 0.5; stroke-linecap: square"/>
     </g>
     <g id="line2d_20">
      <g>
       <use xlink:href="#m96159797b7" x="45.760625" y="159.550631" style="stroke: #000000; stroke-width: 0.8"/>
      </g>
     </g>
     <g id="text_10">
      <text style="font-size: 9px; font-family: 'DejaVu Sans', 'Bitstream Vera Sans', 'Computer Modern Sans Serif', 'Lucida Grande', 'Verdana', 'Geneva', 'Lucid', 'Arial', 'Helvetica', 'Avant Garde', sans-serif; text-anchor: end" x="38.760625" y="162.969576" transform="rotate(-0 38.760625 162.969576)">0,0</text>
     </g>
    </g>
    <g id="ytick_3">
     <g id="line2d_21">
      <path d="M 45.760625 122.236492 
L 397.300625 122.236492 
" clip-path="url(#p0ac21348ed)" style="fill: none; stroke: #b0b0b0; stroke-opacity: 0.25; stroke-width: 0.5; stroke-linecap: square"/>
     </g>
     <g id="line2d_22">
      <g>
       <use xlink:href="#m96159797b7" x="45.760625" y="122.236492" style="stroke: #000000; stroke-width: 0.8"/>
      </g>
     </g>
     <g id="text_11">
      <text style="font-size: 9px; font-family: 'DejaVu Sans', 'Bitstream Vera Sans', 'Computer Modern Sans Serif', 'Lucida Grande', 'Verdana', 'Geneva', 'Lucid', 'Arial', 'Helvetica', 'Avant Garde', sans-serif; text-anchor: end" x="38.760625" y="125.655437" transform="rotate(-0 38.760625 125.655437)">0,2</text>
     </g>
    </g>
    <g id="ytick_4">
     <g id="line2d_23">
      <path d="M 45.760625 84.922353 
L 397.300625 84.922353 
" clip-path="url(#p0ac21348ed)" style="fill: none; stroke: #b0b0b0; stroke-opacity: 0.25; stroke-width: 0.5; stroke-linecap: square"/>
     </g>
     <g id="line2d_24">
      <g>
       <use xlink:href="#m96159797b7" x="45.760625" y="84.922353" style="stroke: #000000; stroke-width: 0.8"/>
      </g>
     </g>
     <g id="text_12">
      <text style="font-size: 9px; font-family: 'DejaVu Sans', 'Bitstream Vera Sans', 'Computer Modern Sans Serif', 'Lucida Grande', 'Verdana', 'Geneva', 'Lucid', 'Arial', 'Helvetica', 'Avant Garde', sans-serif; text-anchor: end" x="38.760625" y="88.341299" transform="rotate(-0 38.760625 88.341299)">0,4</text>
     </g>
    </g>
    <g id="ytick_5">
     <g id="line2d_25">
      <path d="M 45.760625 47.608214 
L 397.300625 47.608214 
" clip-path="url(#p0ac21348ed)" style="fill: none; stroke: #b0b0b0; stroke-opacity: 0.25; stroke-width: 0.5; stroke-linecap: square"/>
     </g>
     <g id="line2d_26">
      <g>
       <use xlink:href="#m96159797b7" x="45.760625" y="47.608214" style="stroke: #000000; stroke-width: 0.8"/>
      </g>
     </g>
     <g id="text_13">
      <text style="font-size: 9px; font-family: 'DejaVu Sans', 'Bitstream Vera Sans', 'Computer Modern Sans Serif', 'Lucida Grande', 'Verdana', 'Geneva', 'Lucid', 'Arial', 'Helvetica', 'Avant Garde', sans-serif; text-anchor: end" x="38.760625" y="51.02716" transform="rotate(-0 38.760625 51.02716)">0,6</text>
     </g>
    </g>
    <g id="text_14">
     <text style="font-size: 10px; font-family: 'DejaVu Sans', 'Bitstream Vera Sans', 'Computer Modern Sans Serif', 'Lucida Grande', 'Verdana', 'Geneva', 'Lucid', 'Arial', 'Helvetica', 'Avant Garde', sans-serif; text-anchor: middle" x="14.798438" y="121.350281" transform="rotate(-90 14.798438 121.350281)">Korrelation zum Aktienindex</text>
    </g>
   </g>
   <g id="line2d_27">
    <path d="M 61.739716 108.934002 
L 62.574133 107.646664 
L 63.40855 113.33707 
L 64.242968 113.430355 
L 65.077385 115.631889 
L 65.911802 150.57658 
L 66.74622 163.50593 
L 67.580637 168.767223 
L 68.415054 164.121613 
L 69.249471 170.558302 
L 70.083889 173.916574 
L 70.918306 173.711347 
L 71.752723 165.166409 
L 72.587141 166.75226 
L 73.421558 169.326935 
L 74.255975 166.491061 
L 75.090392 166.285833 
L 75.92481 166.957487 
L 76.759227 167.479885 
L 77.593644 170.800844 
L 78.428062 176.17408 
L 79.262479 163.50593 
L 80.096896 161.584251 
L 81.765731 149.139986 
L 83.434565 128.579896 
L 84.268982 92.254582 
L 85.1034 97.403933 
L 85.937817 108.299661 
L 86.772234 110.463881 
L 87.606652 120.557356 
L 88.441069 136.938263 
L 89.275486 136.658407 
L 90.109903 137.087519 
L 90.944321 136.677064 
L 91.778738 134.363587 
L 92.613155 133.225506 
L 93.447573 132.31131 
L 94.28199 135.147184 
L 95.116407 134.139702 
L 95.950824 131.639655 
L 96.785242 132.143396 
L 97.619659 133.89716 
L 98.454076 137.927087 
L 99.288494 163.636529 
L 100.957328 167.741084 
L 101.791745 168.46871 
L 102.626163 157.479696 
L 103.46058 177.554703 
L 104.294997 179.476381 
L 105.129414 188.674316 
L 105.963832 194.495322 
L 106.798249 202.573833 
L 107.632666 203.058917 
L 108.467084 212.070281 
L 109.301501 207.256757 
L 110.970335 196.510285 
L 111.804753 197.834937 
L 112.63917 200.708126 
L 113.473587 207.443328 
L 114.308005 197.405825 
L 115.142422 197.405825 
L 115.976839 199.66333 
L 116.811256 199.327503 
L 117.645674 202.368605 
L 118.480091 181.510002 
L 119.314508 178.263671 
L 120.148925 174.233744 
L 120.983343 168.673938 
L 121.81776 172.013553 
L 122.652177 171.938925 
L 123.486595 159.252118 
L 124.321012 157.386411 
L 125.989846 166.640317 
L 126.824264 166.658974 
L 127.658681 159.587945 
L 128.493098 132.423252 
L 129.327516 152.703486 
L 130.161933 156.677442 
L 130.99635 153.132599 
L 131.830767 159.476003 
L 132.665185 161.099168 
L 133.499602 166.976144 
L 134.334019 164.401469 
L 135.168437 159.084204 
L 136.002854 162.479791 
L 136.837271 144.923488 
L 137.671688 145.16603 
L 138.506106 53.056079 
L 139.340523 50.574688 
L 140.17494 55.182985 
L 141.009357 56.35838 
L 141.843775 52.813537 
L 142.678192 53.130707 
L 143.512609 52.738908 
L 144.347027 49.772434 
L 145.181444 50.089605 
L 146.015861 53.895647 
L 146.850278 51.787398 
L 147.684696 53.373249 
L 148.519113 53.932961 
L 149.35353 52.47771 
L 150.187948 52.533681 
L 151.856782 50.50006 
L 152.691199 47.533586 
L 154.360034 93.075493 
L 155.194451 87.6836 
L 156.028869 85.724607 
L 156.863286 94.568058 
L 157.697703 96.452422 
L 158.53212 98.635299 
L 159.366538 98.150215 
L 160.200955 100.426378 
L 161.035372 80.2954 
L 161.869789 84.493241 
L 163.538624 66.09737 
L 164.373041 86.881346 
L 165.207459 89.418707 
L 166.041876 91.489642 
L 166.876293 85.761921 
L 167.71071 91.862783 
L 168.545128 90.873958 
L 169.379545 113.038557 
L 170.213962 117.143112 
L 171.882797 121.732751 
L 172.717214 127.273901 
L 173.551631 124.195484 
L 174.386049 137.143491 
L 175.220466 142.703297 
L 176.054883 138.524114 
L 176.889301 139.718166 
L 177.723718 140.091307 
L 178.558135 138.692027 
L 179.392552 125.035052 
L 180.22697 124.811168 
L 181.061387 123.07606 
L 181.895804 128.225411 
L 182.730221 125.146995 
L 183.564639 124.885796 
L 184.399056 111.863161 
L 185.233473 109.549685 
L 186.067891 111.863161 
L 186.902308 111.639277 
L 187.736725 99.083069 
L 188.571142 91.900097 
L 189.40556 87.646285 
L 190.239977 87.553 
L 191.074394 93.150121 
L 191.908812 85.090267 
L 192.743229 97.497218 
L 193.577646 99.997265 
L 194.412063 103.821965 
L 195.246481 105.463787 
L 196.080898 106.210069 
L 196.915315 111.023593 
L 197.749733 112.57213 
L 198.58415 112.777358 
L 199.418567 111.993761 
L 200.252984 106.471268 
L 201.087402 103.038368 
L 201.921819 101.974915 
L 202.756236 108.038462 
L 203.590653 121.415581 
L 204.425071 122.180521 
L 206.093905 113.187813 
L 206.928323 121.061097 
L 207.76274 103.448823 
L 208.597157 101.471174 
L 209.431574 106.452611 
L 210.265992 114.307238 
L 211.100409 108.430261 
L 211.934826 107.012323 
L 212.769244 98.784556 
L 213.603661 95.370312 
L 214.438078 97.795731 
L 215.272495 98.150215 
L 216.106913 95.165084 
L 216.94133 87.179859 
L 217.775747 91.452328 
L 218.610165 109.195201 
L 219.444582 109.77357 
L 220.278999 92.758322 
L 221.113416 95.519569 
L 221.947834 96.097938 
L 222.782251 83.317845 
L 223.616668 78.149837 
L 224.451085 74.25051 
L 225.285503 68.560103 
L 226.11992 65.089888 
L 226.954337 56.35838 
L 227.788755 57.011377 
L 228.623172 58.671857 
L 229.457589 43.317088 
L 230.292006 45.481308 
L 231.126424 45.705193 
L 231.960841 57.906917 
L 232.795258 56.395694 
L 233.629676 48.578382 
L 234.464093 45.014882 
L 235.29851 48.802267 
L 236.132927 44.45517 
L 236.967345 42.458863 
L 237.801762 49.306008 
L 238.636179 48.279869 
L 239.470597 49.847063 
L 240.305014 49.54855 
L 241.139431 51.806055 
L 242.808266 54.287445 
L 243.642683 52.440395 
L 244.4771 57.645718 
L 245.311517 57.608404 
L 246.145935 60.705477 
L 246.980352 49.361979 
L 247.814769 51.787398 
L 248.649187 50.425432 
L 249.483604 53.168021 
L 250.318021 49.753777 
L 251.152438 43.615602 
L 251.986856 41.731238 
L 252.821273 36.787114 
L 253.65569 36.619201 
L 254.490108 34.380352 
L 255.324525 36.152774 
L 256.158942 33.783326 
L 256.993359 33.876611 
L 257.827777 35.163949 
L 258.662194 38.615507 
L 259.496611 44.865625 
L 260.331029 43.727544 
L 261.165446 41.451382 
L 261.999863 48.429125 
L 262.83428 46.61939 
L 263.668698 51.71277 
L 264.503115 74.679622 
L 265.337532 83.22456 
L 266.171949 111.452706 
L 267.006367 114.195295 
L 267.840784 118.449107 
L 268.675201 124.904453 
L 269.509619 127.758985 
L 270.344036 134.587472 
L 271.178453 132.665794 
L 272.01287 133.430734 
L 272.847288 137.386032 
L 273.681705 138.654713 
L 274.516122 139.587567 
L 275.35054 143.356295 
L 276.184957 152.796772 
L 277.019374 153.916196 
L 277.853791 156.546843 
L 278.688209 150.091497 
L 279.522626 139.419653 
L 280.357043 135.053899 
L 281.191461 133.990446 
L 282.025878 135.240469 
L 282.860295 130.221718 
L 283.694712 126.564932 
L 284.52913 112.907957 
L 285.363547 115.650547 
L 286.197964 121.04244 
L 287.032381 123.542487 
L 287.866799 118.318507 
L 288.701216 120.650641 
L 289.535633 111.601962 
L 290.370051 122.721576 
L 291.204468 109.624313 
L 292.038885 113.486326 
L 292.873302 114.232609 
L 293.70772 135.147184 
L 294.542137 129.064979 
L 295.376554 131.602341 
L 296.210972 141.210732 
L 297.045389 131.826226 
L 297.879806 141.770444 
L 298.714223 148.319075 
L 299.548641 148.169819 
L 300.383058 148.580274 
L 301.217475 147.050394 
L 302.051893 145.128716 
L 302.88631 146.770538 
L 303.720727 143.468237 
L 304.555144 152.404973 
L 305.389562 155.576675 
L 306.223979 151.901232 
L 307.058396 150.016868 
L 307.892813 147.125023 
L 308.727231 134.232988 
L 309.561648 143.505551 
L 310.396065 138.244258 
L 311.230483 134.512844 
L 312.0649 134.512844 
L 312.899317 125.837306 
L 313.733734 121.975293 
L 314.568152 124.232798 
L 315.402569 118.486421 
L 316.236986 120.240186 
L 317.071404 121.135725 
L 317.905821 119.82973 
L 318.740238 123.505173 
L 319.574655 119.51256 
L 320.409073 109.213858 
L 321.24349 118.075966 
L 322.077907 114.792321 
L 322.912325 116.415486 
L 323.746742 78.299094 
L 325.415576 65.519001 
L 326.249994 64.418234 
L 327.084411 61.13459 
L 327.918828 64.828689 
L 328.753245 66.283941 
L 329.587663 64.642119 
L 330.42208 64.548833 
L 331.256497 62.888354 
L 332.090915 64.082407 
L 332.925332 63.074925 
L 333.759749 60.518906 
L 334.594166 59.362168 
L 335.428584 61.601016 
L 336.263001 55.59344 
L 337.097418 58.093487 
L 337.931836 54.380731 
L 338.766253 78.056552 
L 339.60067 70.761638 
L 340.435087 74.940821 
L 341.269505 70.127297 
L 342.103922 77.608782 
L 342.938339 73.093771 
L 343.772756 71.899719 
L 344.607174 74.698279 
L 345.441591 79.586431 
L 346.276008 77.478183 
L 347.110426 84.082785 
L 347.944843 78.821492 
L 348.77926 76.004274 
L 349.613677 72.254203 
L 350.448095 65.052574 
L 351.282512 89.176165 
L 352.116929 71.675834 
L 352.951347 72.739287 
L 353.785764 72.776601 
L 354.620181 74.922164 
L 355.454598 74.735593 
L 356.289016 78.784177 
L 357.123433 82.105136 
L 357.95785 80.631227 
L 358.792268 81.023026 
L 359.626685 79.082691 
L 360.461102 76.6013 
L 361.295519 76.097559 
L 362.129937 72.739287 
L 362.964354 75.855017 
L 363.798771 81.582738 
L 364.633188 81.82528 
L 365.467606 85.929835 
L 366.302023 69.978041 
L 367.13644 87.459715 
L 367.970858 79.549117 
L 368.805275 78.168494 
L 369.639692 77.534154 
L 370.474109 78.299094 
L 371.308527 72.011661 
L 372.142944 64.026435 
L 373.811779 55.182985 
L 374.646196 52.085911 
L 375.480613 49.436607 
L 377.149448 48.130612 
L 377.983865 49.324665 
L 378.818282 48.597039 
L 379.6527 53.410563 
L 380.487117 51.862026 
L 381.321534 50.910516 
L 381.321534 50.910516 
" clip-path="url(#p0ac21348ed)" style="fill: none; stroke: #2f5d8c; stroke-width: 1.8; stroke-linecap: square"/>
   </g>
   <g id="line2d_28">
    <path d="M 61.739716 95.090456 
L 62.574133 95.25837 
L 63.40855 98.448729 
L 64.242968 100.015922 
L 65.077385 98.262158 
L 65.911802 137.777831 
L 67.580637 152.069146 
L 68.415054 152.591544 
L 69.249471 161.379024 
L 70.083889 162.61039 
L 70.918306 170.129189 
L 71.752723 160.017058 
L 72.587141 168.524681 
L 73.421558 168.935137 
L 74.255975 165.427608 
L 75.090392 167.256001 
L 75.92481 169.700077 
L 76.759227 166.453747 
L 78.428062 178.114415 
L 79.262479 158.617777 
L 80.096896 155.315476 
L 80.931313 147.684735 
L 81.765731 145.557829 
L 82.600148 136.770349 
L 83.434565 129.773948 
L 84.268982 100.202493 
L 85.1034 101.284603 
L 85.937817 113.150499 
L 86.772234 117.646853 
L 88.441069 147.031737 
L 89.275486 145.259316 
L 90.109903 145.7444 
L 90.944321 145.427229 
L 92.613155 141.453274 
L 93.447573 140.595048 
L 94.28199 147.833991 
L 95.116407 147.945934 
L 95.950824 146.472025 
L 96.785242 146.807852 
L 97.619659 147.983248 
L 98.454076 151.360177 
L 99.288494 174.756142 
L 100.122911 178.077101 
L 100.957328 180.614462 
L 101.791745 181.491344 
L 102.626163 160.371542 
L 103.46058 146.901138 
L 104.294997 138.412171 
L 105.963832 148.729531 
L 106.798249 158.505835 
L 107.632666 162.498448 
L 108.467084 169.625448 
L 109.301501 173.580747 
L 110.135918 173.618061 
L 110.970335 168.338111 
L 111.804753 168.076912 
L 112.63917 169.345592 
L 113.473587 176.136766 
L 114.308005 166.565689 
L 115.142422 165.22238 
L 115.976839 169.68142 
L 116.811256 170.558302 
L 117.645674 171.71504 
L 118.480091 157.572982 
L 119.314508 165.614178 
L 120.148925 165.390294 
L 120.983343 159.457346 
L 121.81776 163.953699 
L 122.652177 161.696194 
L 123.486595 153.020657 
L 124.321012 151.080321 
L 125.155429 151.266892 
L 125.989846 156.509529 
L 126.824264 159.718544 
L 127.658681 155.110248 
L 128.493098 140.483106 
L 129.327516 162.199935 
L 130.161933 174.401658 
L 130.99635 166.901516 
L 131.830767 171.379213 
L 132.665185 172.200124 
L 133.499602 178.226357 
L 134.334019 173.991203 
L 135.168437 163.935042 
L 136.002854 167.610485 
L 136.837271 144.904831 
L 137.671688 143.468237 
L 138.506106 56.507637 
L 139.340523 46.264905 
L 140.17494 53.261306 
L 141.009357 53.634448 
L 141.843775 47.552243 
L 142.678192 48.78361 
L 143.512609 48.559725 
L 144.347027 44.865625 
L 145.181444 44.623083 
L 146.015861 47.626871 
L 146.850278 43.764858 
L 147.684696 45.313395 
L 148.519113 45.481308 
L 149.35353 44.511141 
L 150.187948 42.962604 
L 151.022365 41.768552 
L 151.856782 39.753588 
L 152.691199 37.346826 
L 153.525617 53.87699 
L 154.360034 82.982018 
L 155.194451 73.653483 
L 156.028869 71.545234 
L 156.863286 93.579233 
L 157.697703 94.288202 
L 158.53212 100.314435 
L 159.366538 93.243406 
L 160.200955 97.310647 
L 161.035372 83.709644 
L 161.869789 89.698563 
L 163.538624 80.370028 
L 164.373041 89.306765 
L 165.207459 87.720914 
L 166.041876 89.045566 
L 166.876293 94.213574 
L 167.71071 96.172566 
L 168.545128 102.161485 
L 169.379545 114.680379 
L 170.213962 121.956636 
L 171.04838 123.747715 
L 171.882797 123.822343 
L 172.717214 137.703203 
L 173.551631 135.277784 
L 174.386049 144.419748 
L 175.220466 145.29663 
L 176.054883 145.93097 
L 176.889301 145.651114 
L 177.723718 147.628764 
L 178.558135 144.307805 
L 179.392552 132.423252 
L 180.22697 140.96819 
L 181.061387 138.636056 
L 181.895804 134.941956 
L 182.730221 133.076249 
L 183.564639 128.374668 
L 184.399056 118.635678 
L 185.233473 117.758795 
L 186.067891 120.408099 
L 186.902308 111.135536 
L 187.736725 104.530933 
L 188.571142 91.844126 
L 189.40556 94.101631 
L 190.239977 94.400144 
L 191.074394 98.728585 
L 191.908812 96.359137 
L 192.743229 108.169062 
L 194.412063 121.471552 
L 195.246481 112.907957 
L 196.080898 111.322106 
L 196.915315 111.956447 
L 198.58415 115.94906 
L 199.418567 114.680379 
L 200.252984 107.068295 
L 201.087402 104.418991 
L 201.921819 113.449012 
L 202.756236 94.605372 
L 203.590653 113.243785 
L 204.425071 114.643065 
L 205.259488 104.176449 
L 206.093905 100.202493 
L 206.928323 106.433954 
L 207.76274 84.30667 
L 208.597157 76.899813 
L 209.431574 80.519285 
L 210.265992 94.138946 
L 211.100409 98.411414 
L 211.934826 101.098032 
L 212.769244 92.795637 
L 213.603661 93.224749 
L 214.438078 96.247194 
L 215.272495 95.202398 
L 216.94133 77.869981 
L 217.775747 79.754345 
L 218.610165 92.291896 
L 219.444582 87.6836 
L 220.278999 77.142355 
L 221.113416 75.575161 
L 221.947834 76.022931 
L 222.782251 69.138473 
L 223.616668 64.866004 
L 224.451085 61.545045 
L 225.285503 52.048597 
L 226.11992 44.417856 
L 226.954337 39.846874 
L 227.788755 40.108073 
L 228.623172 40.779727 
L 229.457589 30.630281 
L 230.292006 33.783326 
L 231.126424 32.048219 
L 231.960841 49.828406 
L 232.795258 51.787398 
L 233.629676 47.347015 
L 234.464093 45.686536 
L 235.29851 46.414162 
L 236.132927 46.432819 
L 236.967345 48.01867 
L 237.801762 68.466818 
L 238.636179 66.395883 
L 239.470597 69.754156 
L 240.305014 68.70936 
L 241.139431 71.022837 
L 241.973848 69.02653 
L 242.808266 70.500439 
L 243.642683 68.951902 
L 244.4771 72.701973 
L 245.311517 73.35497 
L 246.145935 79.903602 
L 246.980352 69.175787 
L 247.814769 71.601206 
L 249.483604 82.086479 
L 250.318021 81.396167 
L 251.152438 66.86231 
L 251.986856 64.69809 
L 252.821273 43.914115 
L 253.65569 44.492484 
L 254.490108 39.324476 
L 255.324525 42.011094 
L 256.158942 39.36179 
L 256.993359 41.71258 
L 257.827777 41.787209 
L 258.662194 44.921596 
L 259.496611 50.014976 
L 260.331029 49.138094 
L 261.165446 44.45517 
L 261.999863 46.48879 
L 262.83428 40.462557 
L 263.668698 44.548455 
L 264.503115 58.149459 
L 265.337532 68.26159 
L 266.171949 99.717409 
L 267.006367 102.273428 
L 267.840784 108.598174 
L 268.675201 119.232704 
L 269.509619 121.322296 
L 270.344036 130.426946 
L 271.178453 125.464165 
L 272.847288 133.822532 
L 273.681705 135.912124 
L 274.516122 134.680757 
L 275.35054 140.96819 
L 276.184957 150.912408 
L 277.019374 148.99073 
L 277.853791 149.139986 
L 278.688209 143.412266 
L 279.522626 133.39342 
L 280.357043 127.423157 
L 281.191461 127.031359 
L 282.025878 127.236587 
L 282.860295 116.527429 
L 284.52913 100.445035 
L 285.363547 103.094339 
L 286.197964 113.840811 
L 287.032381 112.907957 
L 287.866799 105.557072 
L 288.701216 109.419085 
L 289.535633 104.307048 
L 290.370051 108.318318 
L 291.204468 97.497218 
L 292.038885 108.616831 
L 292.873302 136.303922 
L 293.70772 152.162431 
L 294.542137 144.121234 
L 295.376554 146.751881 
L 296.210972 149.792984 
L 297.045389 142.106271 
L 297.879806 147.703392 
L 298.714223 154.233366 
L 299.548641 152.162431 
L 300.383058 151.304206 
L 301.217475 151.640033 
L 302.051893 149.960897 
L 302.88631 150.856437 
L 303.720727 144.680947 
L 304.555144 153.487083 
L 305.389562 154.289337 
L 306.223979 151.248235 
L 307.058396 146.416054 
L 308.727231 123.337259 
L 309.561648 129.363493 
L 310.396065 121.975293 
L 311.230483 120.967811 
L 312.0649 117.758795 
L 312.899317 113.467669 
L 313.733734 111.80719 
L 314.568152 116.975198 
L 315.402569 115.221434 
L 316.236986 114.176638 
L 317.071404 115.296062 
L 317.905821 115.072177 
L 318.740238 119.06479 
L 319.574655 113.374384 
L 320.409073 110.277311 
L 321.24349 118.262536 
L 322.077907 112.031075 
L 322.912325 108.672803 
L 323.746742 69.119815 
L 324.581159 70.295211 
L 325.415576 67.347394 
L 326.249994 70.332525 
L 327.084411 66.451855 
L 327.918828 69.716842 
L 328.753245 71.060151 
L 329.587663 63.61598 
L 330.42208 61.563702 
L 331.256497 61.339817 
L 332.090915 62.477899 
L 332.925332 61.13459 
L 333.759749 59.418139 
L 334.594166 51.880683 
L 335.428584 52.66428 
L 336.263001 45.350709 
L 337.097418 51.320971 
L 337.931836 50.742602 
L 338.766253 75.463219 
L 339.60067 66.619768 
L 340.435087 72.235546 
L 341.269505 60.966676 
L 342.103922 68.933245 
L 342.938339 63.392095 
L 343.772756 70.668352 
L 344.607174 70.089983 
L 345.441591 76.116216 
L 346.276008 75.052764 
L 347.110426 79.306575 
L 347.944843 72.925858 
L 348.77926 74.157224 
L 349.613677 78.709549 
L 350.448095 74.063939 
L 351.282512 102.51597 
L 352.116929 75.164706 
L 352.951347 71.731805 
L 353.785764 73.019143 
L 354.620181 73.634826 
L 355.454598 73.765426 
L 356.289016 78.13118 
L 357.123433 79.84763 
L 357.95785 78.261779 
L 358.792268 73.914682 
L 359.626685 72.851229 
L 360.461102 70.220583 
L 361.295519 70.761638 
L 362.129937 68.728017 
L 362.964354 75.556504 
L 363.798771 77.758039 
L 364.633188 78.597607 
L 365.467606 82.926047 
L 366.302023 64.026435 
L 367.13644 68.690703 
L 367.970858 65.742886 
L 368.805275 60.836077 
L 369.639692 62.40327 
L 370.474109 75.481876 
L 371.308527 70.724323 
L 372.142944 64.101064 
L 372.977361 59.15694 
L 373.811779 57.813631 
L 374.646196 55.350898 
L 375.480613 53.373249 
L 376.31503 53.615791 
L 377.149448 53.335935 
L 377.983865 51.227686 
L 378.818282 48.279869 
L 379.6527 52.291139 
L 380.487117 45.966392 
L 381.321534 47.365673 
L 381.321534 47.365673 
" clip-path="url(#p0ac21348ed)" style="fill: none; stroke-dasharray: 5.18,2.24; stroke-dashoffset: 0; stroke: #4d7fa8; stroke-width: 1.4"/>
   </g>
   <g id="line2d_29">
    <path d="M 61.739716 105.594386 
L 62.574133 100.967433 
L 63.40855 111.844504 
L 64.242968 109.904169 
L 65.077385 107.47875 
L 65.911802 132.516537 
L 66.74622 149.158643 
L 67.580637 155.613989 
L 68.415054 155.278162 
L 69.249471 164.084299 
L 70.083889 165.912692 
L 70.918306 170.688901 
L 71.752723 160.558113 
L 72.587141 170.465016 
L 73.421558 165.782092 
L 74.255975 158.59912 
L 75.090392 163.524587 
L 75.92481 164.121613 
L 76.759227 145.688428 
L 77.593644 157.628953 
L 78.428062 158.655092 
L 79.262479 141.415959 
L 80.096896 135.165841 
L 80.931313 133.430734 
L 81.765731 132.385938 
L 82.600148 126.13582 
L 83.434565 124.251456 
L 84.268982 113.952753 
L 85.1034 117.273712 
L 85.937817 121.99395 
L 86.772234 122.945461 
L 87.606652 124.15817 
L 88.441069 138.132315 
L 89.275486 138.561428 
L 90.944321 137.684546 
L 91.778738 139.233082 
L 92.613155 131.919511 
L 93.447573 132.833707 
L 94.28199 146.490682 
L 95.116407 149.382528 
L 95.950824 149.084015 
L 96.785242 150.912408 
L 97.619659 153.804253 
L 98.454076 155.427419 
L 99.288494 166.789574 
L 100.122911 167.871684 
L 100.957328 170.9501 
L 101.791745 168.114226 
L 103.46058 129.102294 
L 104.294997 121.117068 
L 105.129414 135.091213 
L 105.963832 142.087614 
L 106.798249 154.419937 
L 107.632666 154.214709 
L 109.301501 161.602908 
L 110.135918 163.524587 
L 110.970335 160.688712 
L 111.804753 161.379024 
L 112.63917 161.546937 
L 113.473587 162.703676 
L 114.308005 156.11773 
L 115.142422 153.63634 
L 115.976839 157.479696 
L 116.811256 158.225979 
L 117.645674 160.707369 
L 118.480091 152.274374 
L 119.314508 161.043196 
L 120.148925 154.40128 
L 120.983343 148.953415 
L 121.81776 153.990824 
L 122.652177 154.233366 
L 123.486595 148.972073 
L 124.321012 146.136198 
L 125.155429 146.304112 
L 125.989846 150.166125 
L 126.824264 155.80056 
L 127.658681 153.002 
L 128.493098 147.684735 
L 129.327516 168.655281 
L 130.161933 178.133072 
L 130.99635 165.035809 
L 131.830767 170.707558 
L 132.665185 170.129189 
L 133.499602 172.610579 
L 134.334019 164.289526 
L 135.168437 158.375235 
L 136.002854 154.196052 
L 136.837271 140.800276 
L 137.671688 141.73313 
L 138.506106 62.198043 
L 139.340523 53.223992 
L 140.17494 54.268788 
L 141.009357 57.179291 
L 141.843775 52.682937 
L 142.678192 53.11205 
L 143.512609 53.11205 
L 144.347027 50.220204 
L 145.181444 50.089605 
L 146.015861 50.798573 
L 146.850278 47.813442 
L 147.684696 48.708982 
L 148.519113 48.802267 
L 149.35353 47.291044 
L 150.187948 46.432819 
L 151.022365 42.589463 
L 151.856782 39.324476 
L 152.691199 38.335651 
L 153.525617 59.231569 
L 154.360034 86.620147 
L 155.194451 93.336692 
L 156.028869 87.608971 
L 156.863286 99.418896 
L 157.697703 98.523357 
L 158.53212 100.202493 
L 159.366538 94.008346 
L 160.200955 95.519569 
L 161.035372 83.392474 
L 161.869789 83.840243 
L 162.704207 76.265473 
L 163.538624 72.142261 
L 164.373041 80.463314 
L 165.207459 78.709549 
L 166.041876 79.791659 
L 166.876293 84.418612 
L 167.71071 83.504416 
L 168.545128 121.04244 
L 169.379545 128.318697 
L 170.213962 136.733035 
L 171.04838 137.516632 
L 172.717214 145.651114 
L 173.551631 143.300323 
L 174.386049 146.322769 
L 175.220466 146.024256 
L 176.054883 143.188381 
L 176.889301 142.068957 
L 177.723718 144.830203 
L 178.558135 143.990635 
L 179.392552 139.942051 
L 180.22697 145.259316 
L 181.061387 143.561522 
L 181.895804 141.490588 
L 182.730221 140.483106 
L 184.399056 131.938168 
L 185.233473 129.550063 
L 186.067891 130.949343 
L 186.902308 125.68805 
L 187.736725 113.113185 
L 188.571142 109.064601 
L 189.40556 110.482538 
L 190.239977 113.560955 
L 191.074394 117.534911 
L 191.908812 116.956541 
L 192.743229 125.986563 
L 193.577646 127.479129 
L 194.412063 129.811262 
L 195.246481 121.54618 
L 196.915315 123.038746 
L 197.749733 125.68805 
L 198.58415 131.788912 
L 199.418567 126.975388 
L 200.252984 118.934191 
L 201.087402 115.05352 
L 201.921819 113.747525 
L 202.756236 124.139513 
L 203.590653 132.591166 
L 204.425071 129.009008 
L 205.259488 123.542487 
L 206.093905 122.870832 
L 206.928323 127.609728 
L 207.76274 95.706139 
L 208.597157 92.161296 
L 209.431574 95.612854 
L 210.265992 104.86676 
L 211.100409 96.881535 
L 211.934826 105.6317 
L 212.769244 108.169062 
L 213.603661 103.019711 
L 214.438078 106.676496 
L 215.272495 109.717598 
L 216.94133 95.407626 
L 217.775747 102.478656 
L 218.610165 115.333376 
L 219.444582 121.284982 
L 221.113416 98.5047 
L 221.947834 102.907768 
L 223.616668 100.967433 
L 224.451085 99.810695 
L 225.285503 95.239713 
L 226.11992 94.605372 
L 226.954337 88.112712 
L 227.788755 84.064128 
L 228.623172 85.127581 
L 229.457589 65.761543 
L 230.292006 63.410752 
L 231.126424 63.93315 
L 231.960841 73.504227 
L 232.795258 71.228064 
L 233.629676 62.98164 
L 234.464093 49.138094 
L 235.29851 46.861932 
L 236.132927 50.518717 
L 236.967345 47.458958 
L 237.801762 49.41795 
L 238.636179 49.156751 
L 239.470597 49.996319 
L 240.305014 49.73512 
L 241.139431 51.3956 
L 242.808266 52.645623 
L 243.642683 49.455264 
L 244.4771 59.716652 
L 245.311517 77.963266 
L 246.145935 92.944893 
L 246.980352 87.179859 
L 248.649187 105.221245 
L 249.483604 109.176543 
L 250.318021 109.157886 
L 251.152438 85.034296 
L 251.986856 84.381298 
L 252.821273 82.273049 
L 253.65569 82.161107 
L 254.490108 81.396167 
L 255.324525 81.302882 
L 256.158942 81.489452 
L 256.993359 82.366335 
L 257.827777 81.899908 
L 258.662194 84.362641 
L 259.496611 87.254487 
L 260.331029 69.79147 
L 261.165446 54.865814 
L 261.999863 51.955312 
L 262.83428 42.794691 
L 263.668698 44.119342 
L 264.503115 47.179102 
L 265.337532 54.977757 
L 266.171949 89.679906 
L 267.006367 98.131558 
L 267.840784 99.736066 
L 268.675201 102.105514 
L 269.509619 104.120478 
L 270.344036 108.430261 
L 271.178453 107.348151 
L 272.01287 107.422779 
L 272.847288 108.840716 
L 274.516122 110.930308 
L 275.35054 117.012513 
L 276.184957 119.792416 
L 277.019374 116.881913 
L 277.853791 117.161769 
L 278.688209 137.27409 
L 279.522626 138.244258 
L 280.357043 138.412171 
L 281.191461 148.841473 
L 282.025878 146.080227 
L 282.860295 141.714473 
L 283.694712 139.624881 
L 284.52913 139.158454 
L 285.363547 140.389821 
L 286.197964 141.192075 
L 287.032381 139.998022 
L 287.866799 140.445792 
L 288.701216 143.31898 
L 289.535633 142.36747 
L 290.370051 141.695815 
L 291.204468 139.251739 
L 292.038885 146.472025 
L 292.873302 147.554135 
L 293.70772 148.300418 
L 294.542137 145.856342 
L 295.376554 144.643632 
L 296.210972 151.919889 
L 297.045389 145.912313 
L 298.714223 165.315665 
L 299.548641 163.953699 
L 300.383058 164.102956 
L 301.217475 163.767129 
L 302.051893 161.248424 
L 302.88631 162.759647 
L 303.720727 152.796772 
L 304.555144 157.461039 
L 305.389562 157.311783 
L 306.223979 156.864013 
L 307.058396 142.460755 
L 307.892813 146.397397 
L 308.727231 133.206849 
L 309.561648 144.736918 
L 310.396065 134.587472 
L 311.230483 130.893372 
L 312.0649 130.632173 
L 312.899317 126.32239 
L 313.733734 124.848482 
L 314.568152 125.408194 
L 315.402569 119.997644 
L 316.236986 121.247667 
L 317.071404 118.896877 
L 317.905821 113.952753 
L 318.740238 117.702824 
L 320.409073 113.990067 
L 321.24349 120.799898 
L 322.077907 119.792416 
L 323.746742 95.053142 
L 324.581159 91.993383 
L 325.415576 92.814294 
L 326.249994 91.041872 
L 327.084411 87.664942 
L 327.918828 87.795542 
L 328.753245 88.597796 
L 329.587663 88.579139 
L 330.42208 92.814294 
L 331.256497 91.694869 
L 332.925332 93.523262 
L 333.759749 91.844126 
L 334.594166 83.467102 
L 335.428584 103.038368 
L 336.263001 94.624029 
L 337.097418 110.519852 
L 337.931836 114.848293 
L 338.766253 122.889489 
L 339.60067 114.325895 
L 340.435087 113.579612 
L 341.269505 110.53851 
L 342.103922 110.426567 
L 342.938339 108.766088 
L 344.607174 111.80719 
L 345.441591 112.25496 
L 346.276008 107.739949 
L 347.110426 115.557261 
L 347.944843 112.441531 
L 348.77926 113.33707 
L 349.613677 114.73635 
L 350.448095 107.03098 
L 351.282512 127.982869 
L 352.116929 102.030886 
L 352.951347 98.355443 
L 353.785764 99.176354 
L 354.620181 103.262252 
L 355.454598 96.321823 
L 356.289016 101.209975 
L 357.123433 103.765993 
L 357.95785 101.956258 
L 358.792268 99.176354 
L 359.626685 94.456116 
L 360.461102 91.956068 
L 361.295519 91.303071 
L 362.129937 83.896214 
L 362.964354 85.892521 
L 363.798771 92.123982 
L 364.633188 91.806812 
L 365.467606 99.624124 
L 366.302023 74.847536 
L 367.13644 89.773191 
L 367.970858 83.970843 
L 368.805275 83.09396 
L 369.639692 83.840243 
L 370.474109 100.631606 
L 372.142944 91.937411 
L 372.977361 80.370028 
L 373.811779 76.862499 
L 374.646196 78.187151 
L 375.480613 78.112523 
L 376.31503 72.384803 
L 377.149448 70.332525 
L 377.983865 66.433197 
L 378.818282 59.063655 
L 379.6527 61.32116 
L 380.487117 55.108356 
L 381.321534 57.459147 
L 381.321534 57.459147 
" clip-path="url(#p0ac21348ed)" style="fill: none; stroke-dasharray: 8.96,2.24,1.4,2.24; stroke-dashoffset: 0; stroke: #8a8a8a; stroke-width: 1.4"/>
   </g>
   <g id="line2d_30">
    <path d="M 61.739716 122.945461 
L 62.574133 119.120761 
L 63.40855 131.359799 
L 64.242968 136.136009 
L 65.077385 136.490493 
L 65.911802 177.629331 
L 66.74622 184.476476 
L 67.580637 185.14813 
L 68.415054 184.905588 
L 69.249471 189.849712 
L 70.083889 184.551104 
L 70.918306 180.539834 
L 71.752723 155.259505 
L 72.587141 162.237249 
L 73.421558 157.293125 
L 74.255975 157.703581 
L 75.090392 163.095474 
L 75.92481 162.74099 
L 76.759227 166.211205 
L 77.593644 163.860414 
L 78.428062 170.222475 
L 79.262479 143.934664 
L 80.096896 153.281856 
L 80.931313 151.509434 
L 81.765731 149.419842 
L 82.600148 149.792984 
L 83.434565 140.688334 
L 84.268982 100.594292 
L 85.1034 105.426473 
L 85.937817 124.885796 
L 86.772234 128.262725 
L 87.606652 127.572414 
L 88.441069 142.031643 
L 89.275486 140.091307 
L 90.109903 139.643538 
L 90.944321 137.050205 
L 92.613155 128.374668 
L 93.447573 129.25155 
L 94.28199 132.479223 
L 95.116407 130.277689 
L 95.950824 132.423252 
L 96.785242 133.001621 
L 97.619659 135.128527 
L 98.454076 137.796488 
L 99.288494 163.095474 
L 100.122911 162.29322 
L 100.957328 156.061759 
L 101.791745 157.759552 
L 102.626163 151.826604 
L 103.46058 144.830203 
L 104.294997 148.22579 
L 105.129414 144.419748 
L 105.963832 150.987036 
L 106.798249 159.867801 
L 107.632666 166.528375 
L 108.467084 159.886458 
L 109.301501 167.983626 
L 110.135918 170.576959 
L 110.970335 162.573076 
L 111.804753 162.330534 
L 112.63917 158.953605 
L 113.473587 155.054277 
L 114.308005 148.636245 
L 115.142422 148.524303 
L 115.976839 152.778115 
L 117.645674 160.054372 
L 118.480091 140.669677 
L 119.314508 136.50915 
L 120.148925 143.486894 
L 120.983343 134.400901 
L 121.81776 140.96819 
L 122.652177 143.542865 
L 123.486595 142.554041 
L 124.321012 139.065169 
L 125.155429 140.091307 
L 125.989846 142.572698 
L 126.824264 144.177206 
L 127.658681 141.042818 
L 128.493098 141.957014 
L 129.327516 162.106649 
L 130.161933 171.211299 
L 130.99635 166.93883 
L 131.830767 166.117919 
L 132.665185 165.110438 
L 133.499602 167.871684 
L 134.334019 167.274658 
L 135.168437 158.207322 
L 136.002854 161.061853 
L 136.837271 142.218213 
L 137.671688 136.82632 
L 138.506106 50.089605 
L 139.340523 47.925385 
L 140.17494 52.085911 
L 141.009357 52.272482 
L 141.843775 48.261212 
L 142.678192 47.552243 
L 143.512609 47.5709 
L 144.347027 44.0074 
L 145.181444 43.615602 
L 146.015861 45.85445 
L 146.850278 44.585769 
L 147.684696 44.623083 
L 148.519113 44.809654 
L 149.35353 43.727544 
L 150.187948 40.928984 
L 151.022365 39.23119 
L 151.856782 37.850567 
L 152.691199 37.122941 
L 154.360034 82.720819 
L 155.194451 80.593913 
L 156.028869 81.843937 
L 156.863286 101.489831 
L 157.697703 108.206376 
L 158.53212 110.370596 
L 159.366538 111.359421 
L 160.200955 114.549779 
L 161.035372 99.362925 
L 161.869789 98.69127 
L 162.704207 95.202398 
L 163.538624 90.668731 
L 164.373041 97.73976 
L 165.207459 97.553189 
L 166.041876 104.642876 
L 166.876293 106.266041 
L 167.71071 103.691365 
L 168.545128 99.250983 
L 169.379545 104.381677 
L 170.213962 108.542203 
L 171.04838 110.669109 
L 171.882797 114.046039 
L 172.717214 118.449107 
L 173.551631 119.96033 
L 174.386049 122.684262 
L 176.054883 134.046417 
L 176.889301 136.863634 
L 177.723718 146.117541 
L 178.558135 151.509434 
L 179.392552 138.80397 
L 180.22697 135.42704 
L 181.061387 129.232893 
L 181.895804 124.493997 
L 182.730221 126.751503 
L 183.564639 126.564932 
L 184.399056 125.594765 
L 185.233473 129.25155 
L 186.067891 128.579896 
L 186.902308 124.60594 
L 187.736725 122.590976 
L 188.571142 111.098222 
L 189.40556 110.762394 
L 190.239977 113.65424 
L 191.074394 115.258748 
L 191.908812 114.885607 
L 192.743229 119.624502 
L 193.577646 106.975009 
L 194.412063 118.505078 
L 195.246481 123.803686 
L 196.080898 125.091024 
L 196.915315 126.732846 
L 197.749733 125.744021 
L 198.58415 129.69932 
L 199.418567 122.143207 
L 200.252984 107.180237 
L 201.087402 106.39664 
L 201.921819 111.378078 
L 202.756236 104.661533 
L 203.590653 128.878409 
L 204.425071 130.147089 
L 205.259488 118.654335 
L 206.093905 116.714 
L 206.928323 122.404406 
L 207.76274 89.344079 
L 208.597157 82.944704 
L 209.431574 83.746958 
L 210.265992 97.73976 
L 211.100409 99.959951 
L 211.934826 106.266041 
L 212.769244 97.347961 
L 213.603661 98.094244 
L 214.438078 99.698752 
L 215.272495 98.280815 
L 216.94133 81.526767 
L 217.775747 92.086668 
L 218.610165 106.284698 
L 219.444582 107.60935 
L 220.278999 96.862878 
L 221.113416 94.997171 
L 221.947834 99.624124 
L 222.782251 96.228537 
L 223.616668 95.930024 
L 224.451085 93.467291 
L 225.285503 82.814104 
L 226.11992 75.556504 
L 226.954337 71.284035 
L 227.788755 75.052764 
L 228.623172 71.675834 
L 229.457589 59.492768 
L 230.292006 57.384519 
L 231.126424 56.35838 
L 231.960841 67.552622 
L 232.795258 63.541352 
L 233.629676 55.444184 
L 234.464093 50.462746 
L 235.29851 51.880683 
L 236.132927 51.955312 
L 236.967345 49.10078 
L 237.801762 55.518812 
L 238.636179 53.503848 
L 239.470597 52.79488 
L 240.305014 53.056079 
L 241.139431 54.362074 
L 241.973848 56.414351 
L 242.808266 56.134495 
L 243.642683 55.108356 
L 244.4771 60.81742 
L 245.311517 64.642119 
L 246.145935 69.269072 
L 246.980352 58.261401 
L 247.814769 60.668163 
L 248.649187 62.104757 
L 249.483604 68.653389 
L 250.318021 68.373533 
L 251.152438 52.682937 
L 251.986856 51.339628 
L 252.821273 47.085816 
L 253.65569 49.082123 
L 254.490108 52.197853 
L 255.324525 53.839676 
L 256.158942 54.362074 
L 256.993359 49.697806 
L 257.827777 51.563513 
L 258.662194 53.932961 
L 259.496611 57.067349 
L 260.331029 56.22778 
L 261.165446 53.802361 
L 261.999863 58.07483 
L 262.83428 55.985239 
L 263.668698 57.906917 
L 264.503115 64.810032 
L 265.337532 66.899624 
L 266.171949 100.277121 
L 267.006367 103.840622 
L 267.840784 106.900381 
L 268.675201 108.486232 
L 269.509619 106.657839 
L 270.344036 115.277405 
L 271.178453 112.851986 
L 272.01287 119.885701 
L 272.847288 122.236492 
L 273.681705 122.460377 
L 274.516122 125.594765 
L 275.35054 134.288959 
L 276.184957 141.621187 
L 277.019374 138.225601 
L 278.688209 133.505362 
L 279.522626 123.374573 
L 280.357043 136.378551 
L 281.191461 135.706896 
L 282.025878 134.270302 
L 282.860295 129.419464 
L 283.694712 132.348624 
L 284.52913 123.169346 
L 285.363547 125.501479 
L 286.197964 130.091118 
L 287.032381 133.747904 
L 287.866799 131.247857 
L 288.701216 134.606129 
L 289.535633 126.173134 
L 290.370051 115.05352 
L 291.204468 109.792227 
L 292.038885 124.456683 
L 292.873302 134.363587 
L 293.70772 140.371164 
L 294.542137 131.86354 
L 295.376554 132.385938 
L 296.210972 132.479223 
L 297.045389 128.542582 
L 297.879806 134.419558 
L 298.714223 134.270302 
L 299.548641 142.703297 
L 300.383058 142.330156 
L 302.051893 139.43831 
L 302.88631 140.539077 
L 303.720727 135.10987 
L 304.555144 143.44958 
L 305.389562 146.677253 
L 307.058396 136.080038 
L 307.892813 133.468048 
L 308.727231 126.956731 
L 309.561648 138.580085 
L 310.396065 138.785313 
L 311.230483 138.598742 
L 312.0649 138.953226 
L 312.899317 138.3562 
L 313.733734 139.307711 
L 314.568152 132.665794 
L 315.402569 127.870927 
L 316.236986 131.378456 
L 317.071404 138.3562 
L 317.905821 135.259126 
L 318.740238 139.736823 
L 320.409073 134.587472 
L 321.24349 144.84886 
L 322.077907 141.901043 
L 322.912325 142.759268 
L 323.746742 97.795731 
L 324.581159 93.019521 
L 325.415576 89.642592 
L 326.249994 87.011945 
L 327.084411 79.437175 
L 327.918828 80.127486 
L 328.753245 81.321539 
L 329.587663 83.896214 
L 330.42208 84.064128 
L 331.256497 76.787871 
L 332.090915 70.687009 
L 332.925332 69.716842 
L 333.759749 67.477993 
L 334.594166 58.615885 
L 335.428584 58.821113 
L 336.263001 48.559725 
L 337.097418 57.459147 
L 337.931836 55.182985 
L 338.766253 79.101348 
L 339.60067 75.612476 
L 340.435087 74.810222 
L 341.269505 72.011661 
L 342.103922 80.202115 
L 342.938339 81.676023 
L 343.772756 86.47089 
L 344.607174 84.437269 
L 345.441591 94.885228 
L 346.276008 94.605372 
L 347.110426 99.381582 
L 347.944843 89.810505 
L 348.77926 92.683694 
L 349.613677 101.359231 
L 350.448095 97.758417 
L 351.282512 115.762489 
L 352.116929 104.381677 
L 352.951347 105.501101 
L 354.620181 109.810884 
L 355.454598 106.732467 
L 356.289016 112.851986 
L 357.123433 114.624408 
L 357.95785 110.687766 
L 358.792268 105.426473 
L 359.626685 104.642876 
L 360.461102 97.030791 
L 361.295519 96.993477 
L 362.129937 94.344173 
L 362.964354 106.191412 
L 363.798771 109.251172 
L 364.633188 107.03098 
L 365.467606 111.098222 
L 366.302023 102.180142 
L 367.13644 101.937601 
L 367.970858 86.769403 
L 368.805275 84.586526 
L 369.639692 86.433576 
L 370.474109 93.784461 
L 371.308527 90.48216 
L 372.142944 96.638993 
L 372.977361 89.941105 
L 373.811779 90.631416 
L 374.646196 87.590314 
L 375.480613 86.993288 
L 376.31503 90.631416 
L 377.149448 89.978419 
L 377.983865 93.224749 
L 378.818282 88.355254 
L 379.6527 89.549306 
L 380.487117 88.523168 
L 381.321534 88.560482 
L 381.321534 88.560482 
" clip-path="url(#p0ac21348ed)" style="fill: none; stroke-dasharray: 1.5,2.475; stroke-dashoffset: 0; stroke: #8f3a33; stroke-width: 1.5"/>
   </g>
   <g id="line2d_31">
    <path d="M 45.760625 159.550631 
L 397.300625 159.550631 
" clip-path="url(#p0ac21348ed)" style="fill: none; stroke: #000000; stroke-width: 0.9; stroke-linecap: square"/>
   </g>
   <g id="patch_4">
    <path d="M 45.760625 221.142281 
L 45.760625 21.558281 
" style="fill: none; stroke: #000000; stroke-width: 0.8; stroke-linejoin: miter; stroke-linecap: square"/>
   </g>
   <g id="patch_5">
    <path d="M 45.760625 221.142281 
L 397.300625 221.142281 
" style="fill: none; stroke: #000000; stroke-width: 0.8; stroke-linejoin: miter; stroke-linecap: square"/>
   </g>
   <g id="text_15">
    <text style="font-size: 8px; font-family: 'DejaVu Sans', 'Bitstream Vera Sans', 'Computer Modern Sans Serif', 'Lucida Grande', 'Verdana', 'Geneva', 'Lucid', 'Arial', 'Helvetica', 'Avant Garde', sans-serif; text-anchor: middle; fill: #8f3a33" x="143.095401" y="215.154761" transform="rotate(-0 143.095401 215.154761)">Feb.–Juni 2020</text>
   </g>
   <g id="text_16">
    <text style="font-size: 11px; font-family: 'DejaVu Sans', 'Bitstream Vera Sans', 'Computer Modern Sans Serif', 'Lucida Grande', 'Verdana', 'Geneva', 'Lucid', 'Arial', 'Helvetica', 'Avant Garde', sans-serif; text-anchor: middle" x="221.530625" y="15.558281" transform="rotate(-0 221.530625 15.558281)">Rollierende Korrelation der digitalen Assets zum Aktienindex</text>
   </g>
   <g id="legend_1">
    <g id="line2d_32">
     <path d="M 103.060625 255.571111 
L 111.060625 255.571111 
L 119.060625 255.571111 
" style="fill: none; stroke: #2f5d8c; stroke-width: 1.8; stroke-linecap: square"/>
    </g>
    <g id="text_17">
     <text style="font-size: 8px; font-family: 'DejaVu Sans', 'Bitstream Vera Sans', 'Computer Modern Sans Serif', 'Lucida Grande', 'Verdana', 'Geneva', 'Lucid', 'Arial', 'Helvetica', 'Avant Garde', sans-serif; text-anchor: start" x="125.460625" y="258.371111" transform="rotate(-0 125.460625 258.371111)">Bitcoin</text>
    </g>
    <g id="line2d_33">
     <path d="M 168.894375 255.571111 
L 176.894375 255.571111 
L 184.894375 255.571111 
" style="fill: none; stroke-dasharray: 5.18,2.24; stroke-dashoffset: 0; stroke: #4d7fa8; stroke-width: 1.4"/>
    </g>
    <g id="text_18">
     <text style="font-size: 8px; font-family: 'DejaVu Sans', 'Bitstream Vera Sans', 'Computer Modern Sans Serif', 'Lucida Grande', 'Verdana', 'Geneva', 'Lucid', 'Arial', 'Helvetica', 'Avant Garde', sans-serif; text-anchor: start" x="191.294375" y="258.371111" transform="rotate(-0 191.294375 258.371111)">Ethereum</text>
    </g>
    <g id="line2d_34">
     <path d="M 246.375625 255.571111 
L 254.375625 255.571111 
L 262.375625 255.571111 
" style="fill: none; stroke-dasharray: 8.96,2.24,1.4,2.24; stroke-dashoffset: 0; stroke: #8a8a8a; stroke-width: 1.4"/>
    </g>
    <g id="text_19">
     <text style="font-size: 8px; font-family: 'DejaVu Sans', 'Bitstream Vera Sans', 'Computer Modern Sans Serif', 'Lucida Grande', 'Verdana', 'Geneva', 'Lucid', 'Arial', 'Helvetica', 'Avant Garde', sans-serif; text-anchor: start" x="268.775625" y="258.371111" transform="rotate(-0 268.775625 258.371111)">XRP</text>
    </g>
    <g id="line2d_35">
     <path d="M 300.638125 255.571111 
L 308.638125 255.571111 
L 316.638125 255.571111 
" style="fill: none; stroke-dasharray: 1.5,2.475; stroke-dashoffset: 0; stroke: #8f3a33; stroke-width: 1.5"/>
    </g>
    <g id="text_20">
     <text style="font-size: 8px; font-family: 'DejaVu Sans', 'Bitstream Vera Sans', 'Computer Modern Sans Serif', 'Lucida Grande', 'Verdana', 'Geneva', 'Lucid', 'Arial', 'Helvetica', 'Avant Garde', sans-serif; text-anchor: start" x="323.038125" y="258.371111" transform="rotate(-0 323.038125 258.371111)">BNB</text>
    </g>
   </g>
  </g>
 </g>
 <defs>
  <clipPath id="p0ac21348ed">
   <rect x="45.760625" y="21.558281" width="351.54" height="199.584"/>
  </clipPath>
 </defs>
</svg>
